<svg xmlns="http://www.w3.org/2000/svg" viewBox="0 0 32 32" fill="none">
  <!-- Background oscuro de GitHub -->
  <rect width="32" height="32" fill="#181717"/>
  
  <!-- Octocat simplificado -->
  <rect x="12" y="8" width="2" height="2" fill="#FFFFFF"/>
  <rect x="18" y="8" width="2" height="2" fill="#FFFFFF"/>
  <rect x="10" y="10" width="2" height="2" fill="#FFFFFF"/>
  <rect x="14" y="10" width="2" height="2" fill="#FFFFFF"/>
  <rect x="16" y="10" width="2" height="2" fill="#FFFFFF"/>
  <rect x="20" y="10" width="2" height="2" fill="#FFFFFF"/>
  <rect x="8" y="12" width="2" height="2" fill="#FFFFFF"/>
  <rect x="22" y="12" width="2" height="2" fill="#FFFFFF"/>
  <rect x="8" y="14" width="2" height="2" fill="#FFFFFF"/>
  <rect x="22" y="14" width="2" height="2" fill="#FFFFFF"/>
  <rect x="8" y="16" width="2" height="2" fill="#FFFFFF"/>
  <rect x="22" y="16" width="2" height="2" fill="#FFFFFF"/>
  <rect x="10" y="18" width="2" height="2" fill="#FFFFFF"/>
  <rect x="20" y="18" width="2" height="2" fill="#FFFFFF"/>
  <rect x="12" y="20" width="2" height="2" fill="#FFFFFF"/>
  <rect x="18" y="20" width="2" height="2" fill="#FFFFFF"/>
  <rect x="14" y="22" width="2" height="2" fill="#FFFFFF"/>
  <rect x="16" y="22" width="2" height="2" fill="#FFFFFF"/>
  
  <!-- Ojos -->
  <rect x="12" y="12" width="2" height="2" fill="#181717"/>
  <rect x="18" y="12" width="2" height="2" fill="#181717"/>
  
  <!-- Brazos -->
  <rect x="6" y="14" width="2" height="2" fill="#FFFFFF"/>
  <rect x="24" y="14" width="2" height="2" fill="#FFFFFF"/>
  
  <!-- Base -->
  <rect x="12" y="24" width="2" height="2" fill="#FFFFFF"/>
  <rect x="18" y="24" width="2" height="2" fill="#FFFFFF"/>
</svg>
