<svg xmlns="http://www.w3.org/2000/svg" viewBox="0 0 32 32" fill="none">
  <!-- Background -->
  <rect width="32" height="32" fill="#2563eb"/>
  
  <!-- Pin de ubicación -->
  <rect x="14" y="6" width="2" height="2" fill="#FFFFFF"/>
  <rect x="16" y="6" width="2" height="2" fill="#FFFFFF"/>
  <rect x="12" y="8" width="2" height="2" fill="#FFFFFF"/>
  <rect x="18" y="8" width="2" height="2" fill="#FFFFFF"/>
  <rect x="10" y="10" width="2" height="2" fill="#FFFFFF"/>
  <rect x="20" y="10" width="2" height="2" fill="#FFFFFF"/>
  <rect x="10" y="12" width="2" height="2" fill="#FFFFFF"/>
  <rect x="20" y="12" width="2" height="2" fill="#FFFFFF"/>
  <rect x="10" y="14" width="2" height="2" fill="#FFFFFF"/>
  <rect x="20" y="14" width="2" height="2" fill="#FFFFFF"/>
  <rect x="12" y="16" width="2" height="2" fill="#FFFFFF"/>
  <rect x="18" y="16" width="2" height="2" fill="#FFFFFF"/>
  <rect x="14" y="18" width="2" height="2" fill="#FFFFFF"/>
  <rect x="16" y="18" width="2" height="2" fill="#FFFFFF"/>
  <rect x="14" y="20" width="2" height="2" fill="#FFFFFF"/>
  <rect x="16" y="20" width="2" height="2" fill="#FFFFFF"/>
  <rect x="15" y="22" width="2" height="2" fill="#FFFFFF"/>
  
  <!-- Centro del pin (hueco) -->
  <rect x="14" y="10" width="2" height="2" fill="#2563eb"/>
  <rect x="16" y="10" width="2" height="2" fill="#2563eb"/>
  <rect x="14" y="12" width="2" height="2" fill="#2563eb"/>
  <rect x="16" y="12" width="2" height="2" fill="#2563eb"/>
</svg>
