<svg xmlns="http://www.w3.org/2000/svg" viewBox="0 0 32 32" fill="none">
  <!-- Fondo transparente -->
  <rect width="32" height="32" fill="transparent"/>
  
  <!-- Globo de diálogo en blanco -->
  <rect x="6" y="8" width="2" height="2" fill="#FFFFFF"/>
  <rect x="8" y="8" width="2" height="2" fill="#FFFFFF"/>
  <rect x="10" y="8" width="2" height="2" fill="#FFFFFF"/>
  <rect x="12" y="8" width="2" height="2" fill="#FFFFFF"/>
  <rect x="14" y="8" width="2" height="2" fill="#FFFFFF"/>
  <rect x="16" y="8" width="2" height="2" fill="#FFFFFF"/>
  <rect x="18" y="8" width="2" height="2" fill="#FFFFFF"/>
  <rect x="20" y="8" width="2" height="2" fill="#FFFFFF"/>
  <rect x="4" y="10" width="2" height="2" fill="#FFFFFF"/>
  <rect x="22" y="10" width="2" height="2" fill="#FFFFFF"/>
  <rect x="4" y="12" width="2" height="2" fill="#FFFFFF"/>
  <rect x="22" y="12" width="2" height="2" fill="#FFFFFF"/>
  <rect x="4" y="14" width="2" height="2" fill="#FFFFFF"/>
  <rect x="22" y="14" width="2" height="2" fill="#FFFFFF"/>
  <rect x="4" y="16" width="2" height="2" fill="#FFFFFF"/>
  <rect x="22" y="16" width="2" height="2" fill="#FFFFFF"/>
  <rect x="6" y="18" width="2" height="2" fill="#FFFFFF"/>
  <rect x="8" y="18" width="2" height="2" fill="#FFFFFF"/>
  <rect x="10" y="18" width="2" height="2" fill="#FFFFFF"/>
  <rect x="12" y="18" width="2" height="2" fill="#FFFFFF"/>
  <rect x="14" y="18" width="2" height="2" fill="#FFFFFF"/>
  <rect x="16" y="18" width="2" height="2" fill="#FFFFFF"/>
  <rect x="18" y="18" width="2" height="2" fill="#FFFFFF"/>
  <rect x="20" y="18" width="2" height="2" fill="#FFFFFF"/>
  
  <!-- Cola del globo -->
  <rect x="6" y="20" width="2" height="2" fill="#FFFFFF"/>
  <rect x="8" y="22" width="2" height="2" fill="#FFFFFF"/>
  
  <!-- Puntos suspensivos dentro (transparentes para que se vea el azul) -->
  <rect x="10" y="13" width="2" height="2" fill="transparent"/>
  <rect x="14" y="13" width="2" height="2" fill="transparent"/>
  <rect x="18" y="13" width="2" height="2" fill="transparent"/>
</svg>
