<svg xmlns="http://www.w3.org/2000/svg" viewBox="0 0 32 32" fill="none">
  <!-- Background azul de Salesforce -->
  <rect width="32" height="32" fill="#00A1E0"/>
  
  <!-- Letra A -->
  <rect x="10" y="8" width="2" height="2" fill="#FFFFFF"/>
  <rect x="12" y="8" width="2" height="2" fill="#FFFFFF"/>
  <rect x="8" y="10" width="2" height="2" fill="#FFFFFF"/>
  <rect x="14" y="10" width="2" height="2" fill="#FFFFFF"/>
  <rect x="8" y="12" width="2" height="2" fill="#FFFFFF"/>
  <rect x="14" y="12" width="2" height="2" fill="#FFFFFF"/>
  <rect x="8" y="14" width="2" height="2" fill="#FFFFFF"/>
  <rect x="10" y="14" width="2" height="2" fill="#FFFFFF"/>
  <rect x="12" y="14" width="2" height="2" fill="#FFFFFF"/>
  <rect x="14" y="14" width="2" height="2" fill="#FFFFFF"/>
  <rect x="8" y="16" width="2" height="2" fill="#FFFFFF"/>
  <rect x="14" y="16" width="2" height="2" fill="#FFFFFF"/>
  <rect x="8" y="18" width="2" height="2" fill="#FFFFFF"/>
  <rect x="14" y="18" width="2" height="2" fill="#FFFFFF"/>
  <rect x="8" y="20" width="2" height="2" fill="#FFFFFF"/>
  <rect x="14" y="20" width="2" height="2" fill="#FFFFFF"/>
  
  <!-- Letra X pequeña -->
  <rect x="18" y="16" width="2" height="2" fill="#FFFFFF"/>
  <rect x="24" y="16" width="2" height="2" fill="#FFFFFF"/>
  <rect x="20" y="18" width="2" height="2" fill="#FFFFFF"/>
  <rect x="22" y="18" width="2" height="2" fill="#FFFFFF"/>
  <rect x="18" y="20" width="2" height="2" fill="#FFFFFF"/>
  <rect x="24" y="20" width="2" height="2" fill="#FFFFFF"/>
</svg>
