<svg xmlns="http://www.w3.org/2000/svg" viewBox="0 0 32 32" fill="none">
  <!-- Background verde de Node.js -->
  <rect width="32" height="32" fill="#339933"/>
  
  <!-- Letras N.js -->
  <rect x="4" y="10" width="2" height="2" fill="#FFFFFF"/>
  <rect x="4" y="12" width="2" height="2" fill="#FFFFFF"/>
  <rect x="6" y="14" width="2" height="2" fill="#FFFFFF"/>
  <rect x="8" y="16" width="2" height="2" fill="#FFFFFF"/>
  <rect x="10" y="18" width="2" height="2" fill="#FFFFFF"/>
  <rect x="10" y="10" width="2" height="2" fill="#FFFFFF"/>
  <rect x="10" y="12" width="2" height="2" fill="#FFFFFF"/>
  
  <!-- Punto -->
  <rect x="14" y="18" width="2" height="2" fill="#FFFFFF"/>
  
  <!-- js -->
  <rect x="18" y="14" width="2" height="2" fill="#FFFFFF"/>
  <rect x="18" y="16" width="2" height="2" fill="#FFFFFF"/>
  <rect x="18" y="18" width="2" height="2" fill="#FFFFFF"/>
  <rect x="16" y="18" width="2" height="2" fill="#FFFFFF"/>
  
  <rect x="22" y="14" width="2" height="2" fill="#FFFFFF"/>
  <rect x="24" y="14" width="2" height="2" fill="#FFFFFF"/>
  <rect x="22" y="16" width="2" height="2" fill="#FFFFFF"/>
  <rect x="24" y="18" width="2" height="2" fill="#FFFFFF"/>
  <rect x="22" y="18" width="2" height="2" fill="#FFFFFF"/>
</svg>
