<svg xmlns="http://www.w3.org/2000/svg" viewBox="0 0 32 32" fill="none">
  <!-- Background azul oscuro de Boomi -->
  <rect width="32" height="32" fill="#0B2C4A"/>
  
  <!-- Letra B -->
  <rect x="8" y="8" width="2" height="2" fill="#00B9E4"/>
  <rect x="8" y="10" width="2" height="2" fill="#00B9E4"/>
  <rect x="8" y="12" width="2" height="2" fill="#00B9E4"/>
  <rect x="8" y="14" width="2" height="2" fill="#00B9E4"/>
  <rect x="8" y="16" width="2" height="2" fill="#00B9E4"/>
  <rect x="8" y="18" width="2" height="2" fill="#00B9E4"/>
  <rect x="8" y="20" width="2" height="2" fill="#00B9E4"/>
  <rect x="10" y="8" width="2" height="2" fill="#00B9E4"/>
  <rect x="12" y="8" width="2" height="2" fill="#00B9E4"/>
  <rect x="14" y="10" width="2" height="2" fill="#00B9E4"/>
  <rect x="10" y="14" width="2" height="2" fill="#00B9E4"/>
  <rect x="12" y="14" width="2" height="2" fill="#00B9E4"/>
  <rect x="14" y="16" width="2" height="2" fill="#00B9E4"/>
  <rect x="14" y="18" width="2" height="2" fill="#00B9E4"/>
  <rect x="10" y="20" width="2" height="2" fill="#00B9E4"/>
  <rect x="12" y="20" width="2" height="2" fill="#00B9E4"/>
  
  <!-- Icono de integración (flechas) -->
  <rect x="18" y="14" width="2" height="2" fill="#00B9E4"/>
  <rect x="20" y="14" width="2" height="2" fill="#00B9E4"/>
  <rect x="22" y="14" width="2" height="2" fill="#00B9E4"/>
  <rect x="24" y="12" width="2" height="2" fill="#00B9E4"/>
  <rect x="24" y="16" width="2" height="2" fill="#00B9E4"/>
</svg>
