<svg xmlns="http://www.w3.org/2000/svg" viewBox="0 0 32 32" fill="none">
  <!-- Background azul de Salesforce -->
  <rect width="32" height="32" fill="#00A1E0"/>
  
  <!-- Nube estilizada de Salesforce -->
  <rect x="10" y="10" width="2" height="2" fill="#FFFFFF"/>
  <rect x="12" y="10" width="2" height="2" fill="#FFFFFF"/>
  <rect x="14" y="10" width="2" height="2" fill="#FFFFFF"/>
  <rect x="16" y="10" width="2" height="2" fill="#FFFFFF"/>
  <rect x="18" y="10" width="2" height="2" fill="#FFFFFF"/>
  <rect x="8" y="12" width="2" height="2" fill="#FFFFFF"/>
  <rect x="20" y="12" width="2" height="2" fill="#FFFFFF"/>
  <rect x="6" y="14" width="2" height="2" fill="#FFFFFF"/>
  <rect x="22" y="14" width="2" height="2" fill="#FFFFFF"/>
  <rect x="6" y="16" width="2" height="2" fill="#FFFFFF"/>
  <rect x="22" y="16" width="2" height="2" fill="#FFFFFF"/>
  <rect x="8" y="18" width="2" height="2" fill="#FFFFFF"/>
  <rect x="10" y="18" width="2" height="2" fill="#FFFFFF"/>
  <rect x="12" y="18" width="2" height="2" fill="#FFFFFF"/>
  <rect x="14" y="18" width="2" height="2" fill="#FFFFFF"/>
  <rect x="16" y="18" width="2" height="2" fill="#FFFFFF"/>
  <rect x="18" y="18" width="2" height="2" fill="#FFFFFF"/>
  <rect x="20" y="18" width="2" height="2" fill="#FFFFFF"/>
  
  <!-- Detalles internos de la nube -->
  <rect x="12" y="14" width="2" height="2" fill="#00A1E0"/>
  <rect x="16" y="14" width="2" height="2" fill="#00A1E0"/>
</svg>
