<svg xmlns="http://www.w3.org/2000/svg" viewBox="0 0 32 32" fill="none">
  <!-- Background rojo de Angular -->
  <rect width="32" height="32" fill="#DD0031"/>
  
  <!-- Letra A en forma de triángulo -->
  <rect x="14" y="6" width="4" height="2" fill="#FFFFFF"/>
  <rect x="12" y="8" width="2" height="2" fill="#FFFFFF"/>
  <rect x="18" y="8" width="2" height="2" fill="#FFFFFF"/>
  <rect x="10" y="10" width="2" height="2" fill="#FFFFFF"/>
  <rect x="20" y="10" width="2" height="2" fill="#FFFFFF"/>
  <rect x="10" y="12" width="2" height="2" fill="#FFFFFF"/>
  <rect x="20" y="12" width="2" height="2" fill="#FFFFFF"/>
  <rect x="8" y="14" width="2" height="2" fill="#FFFFFF"/>
  <rect x="22" y="14" width="2" height="2" fill="#FFFFFF"/>
  <rect x="8" y="16" width="2" height="2" fill="#FFFFFF"/>
  <rect x="10" y="16" width="2" height="2" fill="#FFFFFF"/>
  <rect x="12" y="16" width="2" height="2" fill="#FFFFFF"/>
  <rect x="14" y="16" width="2" height="2" fill="#FFFFFF"/>
  <rect x="16" y="16" width="2" height="2" fill="#FFFFFF"/>
  <rect x="18" y="16" width="2" height="2" fill="#FFFFFF"/>
  <rect x="20" y="16" width="2" height="2" fill="#FFFFFF"/>
  <rect x="22" y="16" width="2" height="2" fill="#FFFFFF"/>
  <rect x="8" y="18" width="2" height="2" fill="#FFFFFF"/>
  <rect x="22" y="18" width="2" height="2" fill="#FFFFFF"/>
  <rect x="6" y="20" width="2" height="2" fill="#FFFFFF"/>
  <rect x="24" y="20" width="2" height="2" fill="#FFFFFF"/>
</svg>
