<svg xmlns="http://www.w3.org/2000/svg" viewBox="0 0 32 32" fill="none">
  <!-- Background naranja de Postman -->
  <rect width="32" height="32" fill="#FF6C37"/>
  
  <!-- Letras PM -->
  <rect x="6" y="10" width="2" height="2" fill="#FFFFFF"/>
  <rect x="6" y="12" width="2" height="2" fill="#FFFFFF"/>
  <rect x="6" y="14" width="2" height="2" fill="#FFFFFF"/>
  <rect x="6" y="16" width="2" height="2" fill="#FFFFFF"/>
  <rect x="6" y="18" width="2" height="2" fill="#FFFFFF"/>
  <rect x="8" y="10" width="2" height="2" fill="#FFFFFF"/>
  <rect x="10" y="10" width="2" height="2" fill="#FFFFFF"/>
  <rect x="12" y="12" width="2" height="2" fill="#FFFFFF"/>
  <rect x="10" y="14" width="2" height="2" fill="#FFFFFF"/>
  <rect x="8" y="14" width="2" height="2" fill="#FFFFFF"/>
  
  <rect x="16" y="10" width="2" height="2" fill="#FFFFFF"/>
  <rect x="16" y="12" width="2" height="2" fill="#FFFFFF"/>
  <rect x="16" y="14" width="2" height="2" fill="#FFFFFF"/>
  <rect x="16" y="16" width="2" height="2" fill="#FFFFFF"/>
  <rect x="16" y="18" width="2" height="2" fill="#FFFFFF"/>
  <rect x="18" y="12" width="2" height="2" fill="#FFFFFF"/>
  <rect x="20" y="14" width="2" height="2" fill="#FFFFFF"/>
  <rect x="22" y="12" width="2" height="2" fill="#FFFFFF"/>
  <rect x="24" y="10" width="2" height="2" fill="#FFFFFF"/>
  <rect x="24" y="12" width="2" height="2" fill="#FFFFFF"/>
  <rect x="24" y="14" width="2" height="2" fill="#FFFFFF"/>
  <rect x="24" y="16" width="2" height="2" fill="#FFFFFF"/>
  <rect x="24" y="18" width="2" height="2" fill="#FFFFFF"/>
</svg>
