<svg xmlns="http://www.w3.org/2000/svg" viewBox="0 0 32 32" fill="none">
  <!-- Background azul de LinkedIn -->
  <rect width="32" height="32" fill="#0A66C2"/>
  
  <!-- Cuadrado pequeño (perfil) -->
  <rect x="8" y="10" width="2" height="2" fill="#FFFFFF"/>
  <rect x="10" y="10" width="2" height="2" fill="#FFFFFF"/>
  <rect x="8" y="12" width="2" height="2" fill="#FFFFFF"/>
  <rect x="10" y="12" width="2" height="2" fill="#FFFFFF"/>
  
  <!-- Línea vertical (experiencia) -->
  <rect x="8" y="16" width="2" height="2" fill="#FFFFFF"/>
  <rect x="10" y="16" width="2" height="2" fill="#FFFFFF"/>
  <rect x="8" y="18" width="2" height="2" fill="#FFFFFF"/>
  <rect x="10" y="18" width="2" height="2" fill="#FFFFFF"/>
  <rect x="8" y="20" width="2" height="2" fill="#FFFFFF"/>
  <rect x="10" y="20" width="2" height="2" fill="#FFFFFF"/>
  
  <!-- "in" de LinkedIn -->
  <rect x="16" y="16" width="2" height="2" fill="#FFFFFF"/>
  <rect x="16" y="18" width="2" height="2" fill="#FFFFFF"/>
  <rect x="16" y="20" width="2" height="2" fill="#FFFFFF"/>
  
  <rect x="20" y="16" width="2" height="2" fill="#FFFFFF"/>
  <rect x="22" y="16" width="2" height="2" fill="#FFFFFF"/>
  <rect x="24" y="16" width="2" height="2" fill="#FFFFFF"/>
  <rect x="20" y="18" width="2" height="2" fill="#FFFFFF"/>
  <rect x="24" y="18" width="2" height="2" fill="#FFFFFF"/>
  <rect x="20" y="20" width="2" height="2" fill="#FFFFFF"/>
  <rect x="24" y="20" width="2" height="2" fill="#FFFFFF"/>
</svg>
