<svg xmlns="http://www.w3.org/2000/svg" viewBox="0 0 32 32" fill="none">
  <!-- Background -->
  <rect width="32" height="32" fill="#2563eb"/>
  
  <!-- Teléfono -->
  <rect x="10" y="6" width="2" height="2" fill="#FFFFFF"/>
  <rect x="12" y="6" width="2" height="2" fill="#FFFFFF"/>
  <rect x="14" y="6" width="2" height="2" fill="#FFFFFF"/>
  <rect x="16" y="6" width="2" height="2" fill="#FFFFFF"/>
  <rect x="18" y="6" width="2" height="2" fill="#FFFFFF"/>
  <rect x="8" y="8" width="2" height="2" fill="#FFFFFF"/>
  <rect x="20" y="8" width="2" height="2" fill="#FFFFFF"/>
  <rect x="8" y="10" width="2" height="2" fill="#FFFFFF"/>
  <rect x="20" y="10" width="2" height="2" fill="#FFFFFF"/>
  <rect x="8" y="12" width="2" height="2" fill="#FFFFFF"/>
  <rect x="20" y="12" width="2" height="2" fill="#FFFFFF"/>
  <rect x="8" y="14" width="2" height="2" fill="#FFFFFF"/>
  <rect x="20" y="14" width="2" height="2" fill="#FFFFFF"/>
  <rect x="8" y="16" width="2" height="2" fill="#FFFFFF"/>
  <rect x="20" y="16" width="2" height="2" fill="#FFFFFF"/>
  <rect x="8" y="18" width="2" height="2" fill="#FFFFFF"/>
  <rect x="20" y="18" width="2" height="2" fill="#FFFFFF"/>
  <rect x="8" y="20" width="2" height="2" fill="#FFFFFF"/>
  <rect x="20" y="20" width="2" height="2" fill="#FFFFFF"/>
  <rect x="10" y="22" width="2" height="2" fill="#FFFFFF"/>
  <rect x="12" y="22" width="2" height="2" fill="#FFFFFF"/>
  <rect x="14" y="22" width="2" height="2" fill="#FFFFFF"/>
  <rect x="16" y="22" width="2" height="2" fill="#FFFFFF"/>
  <rect x="18" y="22" width="2" height="2" fill="#FFFFFF"/>
  
  <!-- Botón home -->
  <rect x="14" y="19" width="2" height="2" fill="#2563eb"/>
  <rect x="16" y="19" width="2" height="2" fill="#2563eb"/>
</svg>
